<?xml version="1.0" encoding="utf-8"?>
<!-- Generator: Adobe Illustrator 21.1.0, SVG Export Plug-In . SVG Version: 6.00 Build 0)  -->
<svg version="1.1" id="Capa_1" xmlns="http://www.w3.org/2000/svg" xmlns:xlink="http://www.w3.org/1999/xlink" x="0px" y="0px"
	 viewBox="0 0 395.6 395.6" style="enable-background:new 0 0 395.6 395.6;" xml:space="preserve">
<g>
	<g>
		<path d="M323.1,27.8H73.5c-31.9,0-57.8,25.9-57.8,57.8V310c0,31.9,25.9,57.8,57.8,57.8h251.8c3.3-0.8,7.1-1.2,11.3-1.2
			c43.5,0,44.1-44,44.1-44V81.1C378.5,51.3,353.5,27.8,323.1,27.8z M349.7,310c0,14.6-11.9,26.5-26.5,26.5H73.5
			C58.9,336.5,47,324.6,47,310V85.6C47,71,58.9,59.1,73.5,59.1h249.6c14.6,0,26.5,11.9,26.5,26.5V310z"/>
	</g>
</g>
<g>
	<path d="M299.4,145.6H96.2c-6.9,0-12.4-5.6-12.4-12.4v-5.3c0-6.9,5.6-12.4,12.4-12.4h203.2c6.9,0,12.4,5.6,12.4,12.4v5.3
		C311.8,140.1,306.2,145.6,299.4,145.6z"/>
	<path d="M299.8,211.9H96.7c-6.9,0-12.4-5.6-12.4-12.4v-5.3c0-6.9,5.6-12.4,12.4-12.4h203.2c6.9,0,12.4,5.6,12.4,12.4v5.3
		C312.2,206.3,306.7,211.9,299.8,211.9z"/>
	<path d="M300.2,278.1H97.1c-6.9,0-12.4-5.6-12.4-12.4v-5.3c0-6.9,5.6-12.4,12.4-12.4h203.2c6.9,0,12.4,5.6,12.4,12.4v5.3
		C312.7,272.6,307.1,278.1,300.2,278.1z"/>
</g>
</svg>
