<?xml version="1.0" encoding="utf-8"?>
<!-- Generator: Adobe Illustrator 21.1.0, SVG Export Plug-In . SVG Version: 6.00 Build 0)  -->
<svg version="1.1" id="Capa_1" xmlns="http://www.w3.org/2000/svg" xmlns:xlink="http://www.w3.org/1999/xlink" x="0px" y="0px"
	 viewBox="0 0 512 512" style="enable-background:new 0 0 512 512;" xml:space="preserve">
<g>
	<path d="M423.5,408.3h-42.2c-8.3,0-15,6.7-15,15s6.7,15,15,15h0.9c-38.2,26.5-83.8,40.3-131.1,39.3
		c-57.3-1.3-111.3-24.3-151.8-64.9C86.6,400,75.6,386.1,66.5,371h61.2c8.3,0,15-6.7,15-15V157.5c0-8.3-6.7-15-15-15H15
		c-8.3,0-15,6.7-15,15V356c0,8.3,6.7,15,15,15h17.1c11.8,23.1,27.2,44.2,46,62.9c46.1,46.1,107.3,72.2,172.4,73.7
		c1.9,0,3.8,0.1,5.7,0.1c55.5,0,108.6-18,152.3-51.3v9.2c0,8.3,6.7,15,15,15s15-6.7,15-15v-42.2
		C438.5,415.1,431.7,408.3,423.5,408.3L423.5,408.3z"/>
	<path d="M497,150.9h-12.3c-12.4-27-29.4-51.5-50.8-72.9c-89.6-89.6-231.2-98-330.4-22.4v-9.2c0-8.3-6.7-15-15-15s-15,6.7-15,15
		v42.2c0,8.3,6.7,15,15,15h42.2c8.3,0,15-6.7,15-15s-6.7-15-15-15h-1c86.8-60.2,206.4-50.9,282.9,25.6
		c15.5,15.5,28.4,32.8,38.5,51.7h-66.9c-8.3,0-15,6.7-15,15v188.5c0,8.3,6.7,15,15,15H497c8.3,0,15-6.7,15-15V165.9
		C512,157.6,505.3,150.9,497,150.9L497,150.9z"/>
	<g>
		<path d="M343,265.8c-0.4,64.7-33.7,110.9-116.7,110.9c-5.1,0-12-0.4-17.4-1.1V269.7L177,281.2v-19l31.9-11.4v-18.2L177,244v-19
			l31.9-11.4v-70.5H239v59.7l63.8-22.5v19L239,221.8V240l63.4-22.5v19L239,259v91.9c39.9-1.8,73.9-25,75.4-85.1H343z"/>
	</g>
</g>
</svg>
