<?xml version="1.0" encoding="utf-8"?>
<!-- Generator: Adobe Illustrator 21.1.0, SVG Export Plug-In . SVG Version: 6.00 Build 0)  -->
<svg version="1.1" id="Capa_1" xmlns="http://www.w3.org/2000/svg" xmlns:xlink="http://www.w3.org/1999/xlink" x="0px" y="0px"
	 viewBox="0 0 395.6 395.6" style="enable-background:new 0 0 395.6 395.6;" xml:space="preserve">
<g>
	<path d="M322.7,27.8H73.1c-31.9,0-57.8,25.9-57.8,57.8V310c0,31.9,25.9,57.8,57.8,57.8h251.8c3.3-0.8,7.1-1.2,11.3-1.2
		c43.5,0,44.1-44,44.1-44V81.1C378,51.3,353.1,27.8,322.7,27.8z M349.2,310c0,14.6-11.9,26.5-26.5,26.5H73.1
		c-14.6,0-26.5-11.9-26.5-26.5V85.6c0-14.6,11.9-26.5,26.5-26.5h249.6c14.6,0,26.5,11.9,26.5,26.5V310z"/>
	<path d="M78.1,145.1h0.7c4.5,0,8.2-3.7,8.2-8.2v-28.8l24.4,33.5c1.5,2.1,4,3.4,6.6,3.4h0.8c0,0,0.1,0,0.1,0c0,0,0.1,0,0.1,0h0.7
		c4.5,0,8.2-3.7,8.2-8.2V83.4c0-4.5-3.7-8.2-8.2-8.2h-0.7c-4.5,0-8.2,3.7-8.2,8.2v28.8L86.4,78.6c-1.5-2.1-4-3.4-6.6-3.4H79
		c0,0-0.1,0-0.1,0c0,0-0.1,0-0.1,0h-0.7c-4.5,0-8.2,3.7-8.2,8.2V137C70,141.5,73.6,145.1,78.1,145.1z"/>
	<path d="M177.6,128.8h-25.4v-11H173c4.5,0,8.2-3.7,8.2-8.2V109c0-4.5-3.7-8.2-8.2-8.2h-20.8v-8.7h24.3c4.5,0,8.2-3.7,8.2-8.2v-0.7
		c0-4.5-3.7-8.2-8.2-8.2h-33.2c-4.5,0-8.2,3.7-8.2,8.2V137c0,4.5,3.7,8.2,8.2,8.2h34.3c4.5,0,8.2-3.7,8.2-8.2
		C185.8,132.5,182.2,128.8,177.6,128.8z"/>
	<path d="M214.2,145.1h0.5c0,0,0,0,0,0c0,0,0,0,0,0h0.4c3.5,0,6.6-2.2,7.7-5.6l10.2-30.3l10.1,30.3c1.1,3.3,4.2,5.6,7.7,5.6h0.5
		c0,0,0,0,0,0s0,0,0,0h0.4c3.5,0,6.6-2.2,7.7-5.5L277.9,86c0.8-2.5,0.4-5.2-1.1-7.4c-1.5-2.1-4-3.4-6.6-3.4h-0.8
		c-3.5,0-6.6,2.3-7.7,5.6l-10.1,30.4l-10.1-30.4c-1.1-3.3-4.2-5.6-7.7-5.6h-1.1c-3.5,0-6.6,2.3-7.7,5.6l-10.1,30.4l-10.1-30.4
		c-1.1-3.3-4.2-5.6-7.7-5.6H196c-2.6,0-5.1,1.3-6.6,3.4c-1.5,2.1-1.9,4.9-1.1,7.4l18.2,53.6C207.6,142.9,210.7,145.1,214.2,145.1z"
		/>
	<path d="M304.7,145.1c18.1,0,26.2-10.5,26.2-20.9c0.1-16.2-14-20.4-22.4-23c-9.3-2.8-10.2-4-10.2-6.2c0-1.4,3.3-2.8,8.1-2.8
		c3.3,0,7.1,1,9.4,2.3c3.8,2.3,8.8,1.1,11.1-2.7l0.3-0.5c1.2-1.8,1.5-4.1,1-6.2c-0.5-2.1-1.8-4-3.7-5.1c-5-3-11.8-4.9-18.1-4.9
		c-17.3,0-25.1,9.9-25.1,19.8c0,15.8,13.3,19.8,22.2,22.5c9.6,2.9,10.5,4.1,10.4,6.7c0,2.7-4.8,4-9.2,4c-4.3,0-9-1.8-11.8-4.6
		c-1.5-1.5-3.6-2.4-5.8-2.4c0,0,0,0,0,0c-2.2,0-4.2,0.9-5.8,2.4L281,124c-1.5,1.5-2.4,3.6-2.4,5.8c0,2.2,0.9,4.3,2.5,5.8
		C287.1,141.5,296.1,145.1,304.7,145.1z"/>
	<path d="M162.6,168.9H85c-8.6,0-15.7,7-15.7,15.7c0,8.6,7,15.7,15.7,15.7h77.6c8.6,0,15.7-7,15.7-15.7
		C178.2,175.9,171.2,168.9,162.6,168.9z"/>
	<path d="M162.6,221.1H85c-8.6,0-15.7,7-15.7,15.7c0,8.6,7,15.7,15.7,15.7h77.6c8.6,0,15.7-7,15.7-15.7
		C178.2,228.1,171.2,221.1,162.6,221.1z"/>
	<path d="M162.6,273.3H85c-8.6,0-15.7,7-15.7,15.7c0,8.6,7,15.7,15.7,15.7h77.6c8.6,0,15.7-7,15.7-15.7
		C178.2,280.3,171.2,273.3,162.6,273.3z"/>
	<path d="M321.8,166.7H202.2c-5,0-9.1,4.1-9.1,9.1v122c0,5,4.1,9.1,9.1,9.1h119.6c5,0,9.1-4.1,9.1-9.1v-122
		C330.9,170.8,326.8,166.7,321.8,166.7z"/>
</g>
</svg>
